<?xml version="1.0" encoding="UTF-8" standalone="no"?>
<!-- Creator: CorelDRAW -->

<svg
   xmlns:dc="http://purl.org/dc/elements/1.1/"
   xmlns:cc="http://creativecommons.org/ns#"
   xmlns:rdf="http://www.w3.org/1999/02/22-rdf-syntax-ns#"
   xmlns:svg="http://www.w3.org/2000/svg"
   xmlns="http://www.w3.org/2000/svg"
   xmlns:sodipodi="http://sodipodi.sourceforge.net/DTD/sodipodi-0.dtd"
   xmlns:inkscape="http://www.inkscape.org/namespaces/inkscape"
   xml:space="preserve"
   width="200mm"
   height="168mm"
   style="shape-rendering:geometricPrecision; text-rendering:geometricPrecision; image-rendering:optimizeQuality; fill-rule:evenodd; clip-rule:evenodd"
   viewBox="0 0 200 168"
   id="svg2985"
   version="1.1"
   inkscape:version="0.48.2 r9819"
   sodipodi:docname="Atom_of_Atheism-Zanaq.svg"
   inkscape:export-filename="D:\downloads\Atom_of_Atheism-Zanaq.png"
   inkscape:export-xdpi="4.0833898"
   inkscape:export-ydpi="4.0833898"><metadata
   id="metadata3021"><rdf:RDF><cc:Work
       rdf:about=""><dc:format>image/svg+xml</dc:format><dc:type
         rdf:resource="http://purl.org/dc/dcmitype/StillImage" /><dc:title></dc:title></cc:Work></rdf:RDF></metadata><sodipodi:namedview
   pagecolor="#ffffff"
   bordercolor="#666666"
   borderopacity="1"
   objecttolerance="10"
   gridtolerance="10"
   guidetolerance="10"
   inkscape:pageopacity="0"
   inkscape:pageshadow="2"
   inkscape:window-width="1172"
   inkscape:window-height="778"
   id="namedview3019"
   showgrid="false"
   inkscape:zoom="0.79291007"
   inkscape:cx="339.98445"
   inkscape:cy="282.58076"
   inkscape:window-x="0"
   inkscape:window-y="0"
   inkscape:window-maximized="0"
   inkscape:current-layer="svg2985" />
 <defs
   id="defs2987">
  <style
   type="text/css"
   id="style2989">
   
    .fil1 {fill:#1F1A17}
    .fil0 {fill:white}
   
  </style>
 
  
  
  
  
  
  
  
 
  
  
  
  
  
  
  
 </defs>
 <path
   style="fill:#282828;fill-opacity:1"
   inkscape:connector-curvature="0"
   id="path2993"
   d="m 124.947,106.05 c 0,23.1639 -1.7526,44.5883 -4.7245,62.0247 l -8.6306,-8.6306 c 1.8316,-14.175 2.9444,-32.8832 2.9444,-53.3941 0,-44.2472 -5.1832,-80.1293 -11.5745,-80.1293 -6.3913,0 -11.5746,35.8821 -11.5746,80.1293 0,17.7254 0.8337,34.104 2.2418,47.3757 l -13.9665,13.9665 c -2.9017,-17.3113 -4.6092,-38.4816 -4.6092,-61.3422 0,-58.4895 11.1713,-105.924 24.9469,-105.924 13.7756,0 24.9468,47.4345 24.9468,105.924 z"
   class="fil0" /><path
   style="fill:#ddc771;fill-opacity:1"
   inkscape:connector-curvature="0"
   id="path2995"
   d="m 121.391,106.05 c 0,19.7332 -1.2325,38.1259 -3.361,53.6006 l -3.1196,-3.1195 c 1.8439,-14.1235 2.9331,-31.5815 2.9331,-50.4811 0,-46.9861 -6.7371,-85.0898 -15.0469,-85.0898 -8.3092,0 -15.0469,38.1037 -15.0469,85.0898 0,16.4276 0.8253,31.7655 2.2516,44.7723 l -8.1228,8.1228 c -2.0691,-15.3276 -3.2687,-33.4592 -3.2687,-52.8951 0,-54.9808 9.5791,-99.5681 21.3906,-99.5681 11.8115,0 21.3906,44.5873 21.3906,99.5681 z"
   class="fil1" /><path
   style="fill:#282828;fill-opacity:1"
   inkscape:connector-curvature="0"
   id="path2997"
   d="M 91.4677,129.492 C 36.5055,109.4874 -4.2476,82.7663 0.4639,69.8215 4.3662,59.1002 38.2334,61.1868 80.9787,73.585 L 74.3229,88.4414 C 46.1944,80.0351 25.3492,76.8686 23.6901,81.4268 c -2.1859,6.0058 29.7594,23.1489 71.3382,38.2823 41.5789,15.1335 77.0698,22.5352 79.2557,16.5294 1.5907,-4.3705 -14.8958,-14.6387 -40.013,-25.7383 l 6.567,-14.6584 c 37.6996,17.3368 62.425,36.1962 58.698,46.436 -4.7115,12.9448 -53.1062,7.2188 -108.068,-12.7858 z"
   class="fil0" /><path
   style="fill:#ddc771;fill-opacity:1"
   inkscape:connector-curvature="0"
   id="path2999"
   d="M 92.684,126.15 C 41.0189,107.3455 2.3968,83.0943 6.4366,71.9951 9.7289,62.9496 40.343,65.4274 79.524,76.8319 l -3.7541,8.3795 C 44.7411,76.1959 21.2909,73.5149 19.0853,79.5746 c -2.8421,7.8086 30.6595,27.1717 74.812,43.2419 44.1525,16.0702 82.2625,22.7716 85.1046,14.963 2.1114,-5.8008 -15.8398,-17.9793 -43.3117,-30.4472 l 3.713,-8.288 c 34.5919,15.8074 57.3052,32.4186 54.1602,41.0594 -4.0398,11.0992 -49.2143,4.8509 -100.879,-13.9537 z"
   class="fil1" /><path
   style="fill:#282828;fill-opacity:1"
   inkscape:connector-curvature="0"
   id="path3001"
   d="m 91.4677,82.6073 c 54.9621,-20.0046 103.357,-25.7307 108.068,-12.7858 3.9349,10.811 -23.8451,31.2299 -65.1258,49.3212 l -5.4424,-15.2424 c 28.0676,-11.9601 47.0164,-23.3684 45.3162,-28.0395 -2.1859,-6.0058 -37.6768,1.3959 -79.2557,16.5293 -41.5788,15.1335 -73.5241,32.2766 -71.3382,38.2824 1.5509,4.2609 19.8683,1.7714 45.2274,-5.438 l 5.4076,15.145 C 34.7617,151.0945 4.161,152.4362 0.4636,142.2778 -4.2479,129.3329 36.5052,102.6118 91.4674,82.6073 z"
   class="fil0" /><path
   style="fill:#ddc771;fill-opacity:1"
   inkscape:connector-curvature="0"
   id="path3003"
   d="m 92.684,85.9491 c 51.6651,-18.8046 96.8396,-25.053 100.879,-13.9538 3.3287,9.1455 -22.3104,27.2197 -60.3415,43.8193 l -3.0666,-8.5884 c 30.5623,-13.2996 51.0967,-26.7246 48.8466,-32.9066 -2.8421,-7.8086 -40.9521,-1.1072 -85.1046,14.963 -44.1525,16.0701 -77.6541,35.4333 -74.812,43.2419 2.0686,5.6835 22.8261,3.6775 50.9957,-4.0314 l 3.0612,8.5733 C 37.0595,146.9085 9.5475,148.6519 6.4362,140.1039 2.3964,129.0047 41.0185,104.7536 92.6836,85.9491 z"
   class="fil1" />
 <path
   style="fill:#282828;fill-opacity:1"
   inkscape:connector-curvature="0"
   id="path3007"
   d="m 1.8777,67.5854 c 9.4597,-9.9244 55.1763,-3.7147 106.655,15.0219 51.4784,18.7365 90.4898,43.3654 91.3571,57.0484 l -32.9177,-11.981 C 155.4153,119.6473 131.4469,108.3295 102.9462,97.9561 74.4455,87.5827 48.8074,80.8452 34.7945,79.566 L 1.8781,67.5854 z"
   class="fil0" /><path
   style="fill:#ddc771;fill-opacity:1"
   inkscape:connector-curvature="0"
   id="path3009"
   d="m 193.128,140.986 -14.0873,-5.1274 C 176.8143,127.119 145.0697,109.4172 104.1899,94.5382 63.31,79.6591 27.6151,72.815 20.2919,78.0788 L 6.2041,72.9513 c 0.0471,-0.3275 0.1203,-0.6476 0.2324,-0.9556 4.0398,-11.0992 49.2143,-4.8508 100.879,13.9538 51.6651,18.8045 90.2872,43.0556 86.2474,54.1548 -0.1121,0.308 -0.2609,0.6006 -0.4353,0.8817 z"
   class="fil1" /><path
   style="fill:#282828;fill-opacity:1"
   inkscape:connector-curvature="0"
   id="path3011"
   d="m 199.89,72.4432 c -0.8672,13.683 -39.8796,38.3122 -91.358,57.0488 -51.4783,18.7366 -97.194,24.9459 -106.654,15.0215 l 32.9177,-11.981 c 14.0129,-1.2793 39.6487,-8.0159 68.1494,-18.3893 28.5007,-10.3734 52.4714,-21.6921 64.0282,-29.7195 l 32.9163,-11.9805 z"
   class="fil0" /><path
   style="fill:#ddc771;fill-opacity:1"
   inkscape:connector-curvature="0"
   id="path3013"
   d="m 6.2033,139.149 14.0873,-5.1273 c 7.3232,5.2638 43.0195,-1.5809 83.8994,-16.4599 40.8798,-14.879 72.623,-32.5804 74.8494,-41.32 l 14.0878,-5.1275 c 0.1744,0.2811 0.3241,0.5733 0.4362,0.8813 4.0398,11.0992 -34.5823,35.3504 -86.2474,54.1549 -51.6651,18.8046 -96.8396,25.0529 -100.879,13.9537 -0.1121,-0.308 -0.1862,-0.6277 -0.2333,-0.9552 z"
   class="fil1" /><path
   style="fill:#282828;fill-opacity:1"
   inkscape:connector-curvature="0"
   id="path3015"
   d="m 79.6638,167.39 c -2.9017,-17.3108 -4.6107,-38.4801 -4.6107,-61.3407 0,-54.7821 9.8009,-99.8644 22.3621,-105.359 l 0,35.0303 c -3.5906,13.6054 -6.0282,39.9992 -6.0282,70.329 0,17.7245 0.8351,34.104 2.2433,47.3742 l -13.9665,13.9665 z"
   class="fil0" /><path
   style="fill:#ddc771;fill-opacity:1"
   inkscape:connector-curvature="0"
   id="path3017"
   d="m 100.977,6.589 0,14.9914 c -7.4511,5.0813 -13.2281,40.9658 -13.2281,84.4692 0,16.4276 0.8253,31.766 2.2516,44.7723 l -8.1228,8.1228 c -2.0691,-15.3276 -3.2687,-33.4592 -3.2687,-52.8951 0,-54.9808 9.5791,-99.5681 21.3906,-99.5681 0.3277,0 0.6535,0.0398 0.9774,0.1075 z"
   class="fil1" />
</svg>